# xmcd
#
# Track frame offsets:
#	150
#	18055
#	34173
#	72571
#	85961
#	94852
#	124581
#	143820
#	165313
#	184524
#	198894
#	215539
#	244200
#	266493
#	279998
#	287640
#
# Disc length: 4066 seconds
#
# Revision: 0
# Processed by: cddbd v1.5.2PL0 Copyright (c) Steve Scherf et al.
# Submitted via: audiograbber 1.83.01
#
DISCID=de0fe010
DTITLE=Sean Costello - WFRG Memorial CD
DYEAR=2008
DGENRE=Blues
TTITLE0=Your Love Is Amazing (Studio Version)
TTITLE1=The Hucklebuck
TTITLE2=Weep And Moan
TTITLE3=Sean Talks Live On WRFG
TTITLE4=Michigan Water
TTITLE5=Canned Heat Blues
TTITLE6=Penitentiary Blues
TTITLE7=Smokestack Lightening
TTITLE8=Check It Out
TTITLE9=Baby Please Don't Go
TTITLE10=Sean's Shuffle
TTITLE11=I'm Leaving
TTITLE12=I Can't Let Go (Soulful Mix)
TTITLE13=Slip Away
TTITLE14=Sean Hits The Road
TTITLE15=Short Haired Woman
EXTD=
EXTT0=
EXTT1=
EXTT2=
EXTT3=
EXTT4=
EXTT5=
EXTT6=
EXTT7=
EXTT8=
EXTT9=
EXTT10=
EXTT11=
EXTT12=
EXTT13=
EXTT14=
EXTT15=
PLAYORDER=
